<svg width="91" height="23" viewBox="0 0 91 23" fill="none" xmlns="http://www.w3.org/2000/svg">
<g clip-path="url(#clip0_847_320)">
<path d="M85.8645 21.3872V5.58057H90.7873L90.7569 21.3872H85.8645ZM85.7126 2.26239C85.7126 1.05578 86.7762 0 88.3563 0C89.9668 0 91 1.05578 91 2.26239C91 3.52933 89.9668 4.58512 88.3563 4.58512C86.7762 4.58512 85.7126 3.52933 85.7126 2.26239Z" fill="white"/>
<path d="M79.0653 21.3871L79.0957 0.271473L84.0185 0.301638L83.9881 21.4173L79.0653 21.3871Z" fill="white"/>
<path d="M68.735 21.3871H63.8123V0.331799H68.735V11.9152L73.0197 5.58055H78.0336L73.749 11.5533C71.7738 14.3285 74.144 15.6859 76.8181 15.6859C77.4258 15.6859 78.064 15.5954 78.6717 15.4144L76.423 21.3871C75.7545 21.5681 75.5418 21.6888 74.7517 21.6888C70.1936 21.6888 70.1025 16.44 71.8042 14.1173L71.4395 13.9665L68.735 17.7371V21.3871Z" fill="white"/>
<path d="M55.066 8.95906C52.5743 8.95906 51.845 11.1008 51.845 13.3632C51.845 15.5351 52.5135 17.7371 55.0053 17.7371C56.008 17.7371 57.3755 17.3148 57.5578 16.5909H62.5717C61.2651 20.5123 57.6794 21.8698 55.218 21.8698C50.6599 21.8698 46.6791 19.1247 46.6791 13.3632C46.6791 7.60162 50.6599 5.2789 55.218 5.2789C57.0412 5.2789 59.0772 5.58055 60.5054 6.757C61.6905 7.75245 62.5717 9.29088 62.5717 10.5578H57.5578C57.3755 9.83385 56.6766 8.95906 55.066 8.95906Z" fill="white"/>
<path d="M40.2835 21.3872V5.58057H45.2062L45.1758 21.3872H40.2835ZM40.1315 2.26239C40.1315 1.05578 41.1951 0 42.7752 0C44.3858 0 45.4189 1.05578 45.4189 2.26239C45.4189 3.52933 44.3858 4.58512 42.7752 4.58512C41.1951 4.58512 40.1315 3.52933 40.1315 2.26239Z" fill="white"/>
<path d="M23.3651 16.5607V5.61073H28.2878V15.1731C28.2878 16.802 29.321 17.4355 30.5365 17.4355C31.6608 17.4355 32.8763 16.5607 33.5144 15.6859V5.61073H38.4372V21.4173L33.8183 21.4475L33.2409 17.6768H32.8459C32.8459 20.6028 30.4757 21.7491 28.4094 21.7491C25.8264 21.7491 23.3651 20.1805 23.3651 16.5607Z" fill="white"/>
<path d="M11.061 0.995441C16.5611 0.995441 22.122 4.46445 22.122 11.3723C22.122 13.467 21.6106 15.2455 20.7446 16.707C19.9863 16.3884 19.163 16.1475 18.2738 15.9572C17.281 15.7448 16.3445 15.6689 15.4688 15.664C16.2853 14.6791 16.8042 13.275 16.8042 11.3723C16.8042 6.90784 13.887 5.18841 11.061 5.18841C8.14382 5.18842 5.31779 6.90784 5.31779 11.3723C5.31779 15.8245 8.18882 17.5467 11.0677 17.5561C12.6826 17.5553 14.1099 16.855 16.3972 17.0486C18.5661 17.2322 20.6245 17.8199 21.9013 18.9064L20.3515 23C16.6569 20.6378 14.1598 21.7493 11.0655 21.7493L11.0655 21.7491C11.064 21.7491 11.0625 21.7491 11.061 21.7491C5.56089 21.7491 0 18.2801 0 11.3723C6.4627e-06 4.46445 5.5609 0.995445 11.061 0.995441Z" fill="white"/>
</g>
<defs>
<clipPath id="clip0_847_320">
<rect width="91" height="23" fill="white"/>
</clipPath>
</defs>
</svg>
